<mxfile host="app.diagrams.net" agent="Mozilla/5.0 (Windows NT 10.0; Win64; x64; rv:130.0) Gecko/20100101 Firefox/130.0" version="24.7.16">
  <diagram id="C5RBs43oDa-KdzZeNtuy" name="Page-1">
    <mxGraphModel dx="853" dy="1942" grid="1" gridSize="10" guides="1" tooltips="1" connect="1" arrows="1" fold="1" page="1" pageScale="1" pageWidth="827" pageHeight="1169" math="0" shadow="0">
      <root>
        <mxCell id="WIyWlLk6GJQsqaUBKTNV-0" />
        <mxCell id="WIyWlLk6GJQsqaUBKTNV-1" parent="WIyWlLk6GJQsqaUBKTNV-0" />
        <mxCell id="bE_vDaXtN3nRqw1rFhPW-147" value="" style="rounded=0;whiteSpace=wrap;html=1;fillColor=#e1d5e7;strokeColor=#9673a6;" vertex="1" parent="WIyWlLk6GJQsqaUBKTNV-1">
          <mxGeometry y="40" width="890" height="720" as="geometry" />
        </mxCell>
        <mxCell id="bE_vDaXtN3nRqw1rFhPW-1" value="&lt;font style=&quot;font-size: 58px;&quot; color=&quot;#8080c0&quot;&gt;Minishell&lt;/font&gt;" style="text;html=1;align=center;verticalAlign=middle;whiteSpace=wrap;rounded=0;" vertex="1" parent="WIyWlLk6GJQsqaUBKTNV-1">
          <mxGeometry x="225" y="-60" width="280" height="50" as="geometry" />
        </mxCell>
        <mxCell id="bE_vDaXtN3nRqw1rFhPW-6" value="Text" style="text;html=1;align=center;verticalAlign=middle;resizable=0;points=[];autosize=1;strokeColor=none;fillColor=none;" vertex="1" parent="WIyWlLk6GJQsqaUBKTNV-1">
          <mxGeometry x="390" y="1158" width="40" height="30" as="geometry" />
        </mxCell>
        <mxCell id="bE_vDaXtN3nRqw1rFhPW-8" value="&lt;font style=&quot;font-size: 18px;&quot;&gt;2) Display prompt&lt;/font&gt;" style="rounded=0;whiteSpace=wrap;html=1;" vertex="1" parent="WIyWlLk6GJQsqaUBKTNV-1">
          <mxGeometry x="230" y="340" width="210" height="40" as="geometry" />
        </mxCell>
        <mxCell id="bE_vDaXtN3nRqw1rFhPW-13" value="&lt;font style=&quot;font-size: 18px;&quot;&gt;3) Read user input&lt;br&gt;&lt;/font&gt;" style="rounded=0;whiteSpace=wrap;html=1;" vertex="1" parent="WIyWlLk6GJQsqaUBKTNV-1">
          <mxGeometry x="230" y="520" width="210" height="40" as="geometry" />
        </mxCell>
        <mxCell id="bE_vDaXtN3nRqw1rFhPW-14" value="&lt;font style=&quot;font-size: 18px;&quot;&gt;1) Parse Input&lt;br&gt;&lt;/font&gt;" style="rounded=0;whiteSpace=wrap;html=1;" vertex="1" parent="WIyWlLk6GJQsqaUBKTNV-1">
          <mxGeometry x="225" y="710" width="210" height="40" as="geometry" />
        </mxCell>
        <mxCell id="bE_vDaXtN3nRqw1rFhPW-49" value="" style="endArrow=classic;html=1;rounded=0;entryX=0;entryY=0.5;entryDx=0;entryDy=0;exitX=1;exitY=0.5;exitDx=0;exitDy=0;" edge="1" parent="WIyWlLk6GJQsqaUBKTNV-1" source="bE_vDaXtN3nRqw1rFhPW-8" target="bE_vDaXtN3nRqw1rFhPW-50">
          <mxGeometry width="50" height="50" relative="1" as="geometry">
            <mxPoint x="445" y="360" as="sourcePoint" />
            <mxPoint x="515" y="200" as="targetPoint" />
          </mxGeometry>
        </mxCell>
        <mxCell id="bE_vDaXtN3nRqw1rFhPW-50" value="&lt;div&gt;Handle signals such as Ctrl + c&lt;/div&gt;&lt;div&gt;(use signal() function)&lt;br&gt;&lt;/div&gt;" style="text;html=1;align=center;verticalAlign=middle;whiteSpace=wrap;rounded=0;" vertex="1" parent="WIyWlLk6GJQsqaUBKTNV-1">
          <mxGeometry x="515" y="270" width="120" height="50" as="geometry" />
        </mxCell>
        <mxCell id="bE_vDaXtN3nRqw1rFhPW-51" value="" style="endArrow=classic;html=1;rounded=0;exitX=1;exitY=0.5;exitDx=0;exitDy=0;" edge="1" parent="WIyWlLk6GJQsqaUBKTNV-1" source="bE_vDaXtN3nRqw1rFhPW-8" target="bE_vDaXtN3nRqw1rFhPW-52">
          <mxGeometry width="50" height="50" relative="1" as="geometry">
            <mxPoint x="485" y="270" as="sourcePoint" />
            <mxPoint x="535" y="240" as="targetPoint" />
          </mxGeometry>
        </mxCell>
        <mxCell id="bE_vDaXtN3nRqw1rFhPW-52" value="&lt;div&gt;print the current Directory&lt;/div&gt;&lt;div&gt;(use getcwd()&lt;/div&gt;&lt;div&gt;function)&lt;br&gt;&lt;/div&gt;" style="text;html=1;align=center;verticalAlign=middle;whiteSpace=wrap;rounded=0;" vertex="1" parent="WIyWlLk6GJQsqaUBKTNV-1">
          <mxGeometry x="525" y="332.5" width="100" height="55" as="geometry" />
        </mxCell>
        <mxCell id="bE_vDaXtN3nRqw1rFhPW-54" value="" style="endArrow=none;html=1;rounded=0;" edge="1" parent="WIyWlLk6GJQsqaUBKTNV-1">
          <mxGeometry width="50" height="50" relative="1" as="geometry">
            <mxPoint x="515" y="330" as="sourcePoint" />
            <mxPoint x="635" y="330" as="targetPoint" />
          </mxGeometry>
        </mxCell>
        <mxCell id="bE_vDaXtN3nRqw1rFhPW-55" value="" style="endArrow=classic;html=1;rounded=0;exitX=1;exitY=0.5;exitDx=0;exitDy=0;entryX=0;entryY=0.5;entryDx=0;entryDy=0;" edge="1" parent="WIyWlLk6GJQsqaUBKTNV-1" source="bE_vDaXtN3nRqw1rFhPW-8" target="bE_vDaXtN3nRqw1rFhPW-56">
          <mxGeometry width="50" height="50" relative="1" as="geometry">
            <mxPoint x="485" y="340" as="sourcePoint" />
            <mxPoint x="515" y="300" as="targetPoint" />
          </mxGeometry>
        </mxCell>
        <mxCell id="bE_vDaXtN3nRqw1rFhPW-56" value="&lt;div&gt;Get the user input, send it to the parser&lt;/div&gt;&lt;div&gt;(use getline()&lt;/div&gt;&lt;div&gt;function)&lt;br&gt;&lt;/div&gt;" style="text;html=1;align=center;verticalAlign=middle;whiteSpace=wrap;rounded=0;" vertex="1" parent="WIyWlLk6GJQsqaUBKTNV-1">
          <mxGeometry x="515" y="400" width="110" height="80" as="geometry" />
        </mxCell>
        <mxCell id="bE_vDaXtN3nRqw1rFhPW-57" value="" style="endArrow=none;html=1;rounded=0;" edge="1" parent="WIyWlLk6GJQsqaUBKTNV-1">
          <mxGeometry width="50" height="50" relative="1" as="geometry">
            <mxPoint x="515" y="400" as="sourcePoint" />
            <mxPoint x="635" y="400" as="targetPoint" />
          </mxGeometry>
        </mxCell>
        <mxCell id="bE_vDaXtN3nRqw1rFhPW-59" value="&lt;div&gt;&lt;font color=&quot;#97300d&quot; style=&quot;font-size: 20px;&quot;&gt;Make it interactive:&lt;/font&gt;&lt;/div&gt;&lt;div&gt;&lt;font color=&quot;#97300d&quot; style=&quot;font-size: 20px;&quot;&gt;Use a continious loop&lt;/font&gt;&lt;/div&gt;&lt;div&gt;&lt;font color=&quot;#97300d&quot; style=&quot;font-size: 20px;&quot;&gt;to keep it running&lt;/font&gt;&lt;/div&gt;&lt;div&gt;&lt;font color=&quot;#97300d&quot; style=&quot;font-size: 20px;&quot;&gt;===&amp;gt;while(1)&lt;br&gt;&lt;/font&gt;&lt;/div&gt;" style="strokeWidth=2;html=1;shape=mxgraph.flowchart.annotation_1;align=left;pointerEvents=1;fillColor=#f8cecc;strokeColor=#b85450;" vertex="1" parent="WIyWlLk6GJQsqaUBKTNV-1">
          <mxGeometry x="655" y="280" width="140" height="190" as="geometry" />
        </mxCell>
        <mxCell id="bE_vDaXtN3nRqw1rFhPW-60" value="" style="verticalLabelPosition=bottom;verticalAlign=top;html=1;strokeWidth=2;shape=mxgraph.arrows2.arrow;dy=0.6;dx=40;notch=1;direction=south;" vertex="1" parent="WIyWlLk6GJQsqaUBKTNV-1">
          <mxGeometry x="285" y="387.5" width="90" height="132.5" as="geometry" />
        </mxCell>
        <mxCell id="bE_vDaXtN3nRqw1rFhPW-61" value="getline()" style="text;html=1;align=center;verticalAlign=middle;whiteSpace=wrap;rounded=0;rotation=0;" vertex="1" parent="WIyWlLk6GJQsqaUBKTNV-1">
          <mxGeometry x="292.5" y="420" width="75" height="40" as="geometry" />
        </mxCell>
        <mxCell id="bE_vDaXtN3nRqw1rFhPW-62" value="&lt;font style=&quot;font-size: 18px;&quot;&gt;1) Initialize shell&lt;/font&gt;" style="rounded=0;whiteSpace=wrap;html=1;" vertex="1" parent="WIyWlLk6GJQsqaUBKTNV-1">
          <mxGeometry x="240" y="80" width="210" height="40" as="geometry" />
        </mxCell>
        <mxCell id="bE_vDaXtN3nRqw1rFhPW-111" value="setup signal handler function" style="whiteSpace=wrap;html=1;aspect=fixed;" vertex="1" parent="WIyWlLk6GJQsqaUBKTNV-1">
          <mxGeometry x="260" y="170" width="80" height="80" as="geometry" />
        </mxCell>
        <mxCell id="bE_vDaXtN3nRqw1rFhPW-112" value="&lt;div&gt;initialize env&lt;/div&gt;&lt;div&gt;variable &lt;br&gt;&lt;/div&gt;&lt;div&gt;(&lt;font color=&quot;#cc0000&quot;&gt;extern char **environ&lt;/font&gt;)&lt;br&gt;&lt;/div&gt;" style="whiteSpace=wrap;html=1;aspect=fixed;" vertex="1" parent="WIyWlLk6GJQsqaUBKTNV-1">
          <mxGeometry x="180" y="170" width="80" height="80" as="geometry" />
        </mxCell>
        <mxCell id="bE_vDaXtN3nRqw1rFhPW-113" value="create data struct for cmd history" style="whiteSpace=wrap;html=1;aspect=fixed;" vertex="1" parent="WIyWlLk6GJQsqaUBKTNV-1">
          <mxGeometry x="340" y="170" width="80" height="80" as="geometry" />
        </mxCell>
        <mxCell id="bE_vDaXtN3nRqw1rFhPW-114" value="set the default working directory" style="whiteSpace=wrap;html=1;aspect=fixed;" vertex="1" parent="WIyWlLk6GJQsqaUBKTNV-1">
          <mxGeometry x="420" y="170" width="80" height="80" as="geometry" />
        </mxCell>
        <mxCell id="bE_vDaXtN3nRqw1rFhPW-116" value="&lt;font color=&quot;#009900&quot;&gt;Ctrl + c&lt;br&gt;&lt;/font&gt;" style="text;html=1;align=center;verticalAlign=middle;whiteSpace=wrap;rounded=0;" vertex="1" parent="WIyWlLk6GJQsqaUBKTNV-1">
          <mxGeometry x="270" y="250" width="60" height="30" as="geometry" />
        </mxCell>
        <mxCell id="bE_vDaXtN3nRqw1rFhPW-117" value="&lt;font color=&quot;#009900&quot;&gt;stores paths&lt;/font&gt;" style="text;html=1;align=center;verticalAlign=middle;whiteSpace=wrap;rounded=0;" vertex="1" parent="WIyWlLk6GJQsqaUBKTNV-1">
          <mxGeometry x="190" y="250" width="60" height="30" as="geometry" />
        </mxCell>
        <mxCell id="bE_vDaXtN3nRqw1rFhPW-119" value="&lt;div&gt;&lt;font color=&quot;#009900&quot;&gt;key - value type with &lt;br&gt;&lt;/font&gt;&lt;/div&gt;&lt;div&gt;&lt;font color=&quot;#009900&quot;&gt;key = cmd &lt;br&gt;&lt;/font&gt;&lt;/div&gt;&lt;div&gt;&lt;font color=&quot;#009900&quot;&gt;value = fct&lt;br&gt;&lt;/font&gt;&lt;/div&gt;" style="text;html=1;align=center;verticalAlign=middle;whiteSpace=wrap;rounded=0;" vertex="1" parent="WIyWlLk6GJQsqaUBKTNV-1">
          <mxGeometry x="350" y="260" width="60" height="30" as="geometry" />
        </mxCell>
        <mxCell id="bE_vDaXtN3nRqw1rFhPW-120" value="&lt;font color=&quot;#009900&quot;&gt;Use getenv and chdir&lt;/font&gt;" style="text;html=1;align=center;verticalAlign=middle;whiteSpace=wrap;rounded=0;" vertex="1" parent="WIyWlLk6GJQsqaUBKTNV-1">
          <mxGeometry x="425" y="260" width="60" height="30" as="geometry" />
        </mxCell>
        <mxCell id="bE_vDaXtN3nRqw1rFhPW-122" value="" style="endArrow=classic;html=1;rounded=0;exitX=0.5;exitY=1;exitDx=0;exitDy=0;entryX=0.5;entryY=0;entryDx=0;entryDy=0;" edge="1" parent="WIyWlLk6GJQsqaUBKTNV-1" source="bE_vDaXtN3nRqw1rFhPW-62" target="bE_vDaXtN3nRqw1rFhPW-112">
          <mxGeometry width="50" height="50" relative="1" as="geometry">
            <mxPoint x="220" y="170" as="sourcePoint" />
            <mxPoint x="270" y="150" as="targetPoint" />
          </mxGeometry>
        </mxCell>
        <mxCell id="bE_vDaXtN3nRqw1rFhPW-123" value="" style="endArrow=classic;html=1;rounded=0;exitX=0.5;exitY=1;exitDx=0;exitDy=0;entryX=0.5;entryY=0;entryDx=0;entryDy=0;" edge="1" parent="WIyWlLk6GJQsqaUBKTNV-1" source="bE_vDaXtN3nRqw1rFhPW-62" target="bE_vDaXtN3nRqw1rFhPW-114">
          <mxGeometry width="50" height="50" relative="1" as="geometry">
            <mxPoint x="377.5" y="130" as="sourcePoint" />
            <mxPoint x="252.5" y="180" as="targetPoint" />
          </mxGeometry>
        </mxCell>
        <mxCell id="bE_vDaXtN3nRqw1rFhPW-125" value="" style="endArrow=classic;html=1;rounded=0;entryX=0.5;entryY=0;entryDx=0;entryDy=0;" edge="1" parent="WIyWlLk6GJQsqaUBKTNV-1" target="bE_vDaXtN3nRqw1rFhPW-113">
          <mxGeometry width="50" height="50" relative="1" as="geometry">
            <mxPoint x="345" y="120" as="sourcePoint" />
            <mxPoint x="352.5" y="130" as="targetPoint" />
          </mxGeometry>
        </mxCell>
        <mxCell id="bE_vDaXtN3nRqw1rFhPW-126" value="" style="endArrow=classic;html=1;rounded=0;exitX=0.5;exitY=0;exitDx=0;exitDy=0;entryX=0.5;entryY=0;entryDx=0;entryDy=0;" edge="1" parent="WIyWlLk6GJQsqaUBKTNV-1" source="bE_vDaXtN3nRqw1rFhPW-117" target="bE_vDaXtN3nRqw1rFhPW-8">
          <mxGeometry width="50" height="50" relative="1" as="geometry">
            <mxPoint x="230" y="350" as="sourcePoint" />
            <mxPoint x="280" y="300" as="targetPoint" />
          </mxGeometry>
        </mxCell>
        <mxCell id="bE_vDaXtN3nRqw1rFhPW-127" value="" style="endArrow=classic;html=1;rounded=0;entryX=0.5;entryY=0;entryDx=0;entryDy=0;" edge="1" parent="WIyWlLk6GJQsqaUBKTNV-1" target="bE_vDaXtN3nRqw1rFhPW-111">
          <mxGeometry width="50" height="50" relative="1" as="geometry">
            <mxPoint x="340" y="120" as="sourcePoint" />
            <mxPoint x="345" y="130" as="targetPoint" />
          </mxGeometry>
        </mxCell>
        <mxCell id="bE_vDaXtN3nRqw1rFhPW-128" value="" style="endArrow=classic;html=1;rounded=0;exitX=0.5;exitY=0;exitDx=0;exitDy=0;entryX=0.5;entryY=0;entryDx=0;entryDy=0;" edge="1" parent="WIyWlLk6GJQsqaUBKTNV-1" source="bE_vDaXtN3nRqw1rFhPW-116" target="bE_vDaXtN3nRqw1rFhPW-8">
          <mxGeometry width="50" height="50" relative="1" as="geometry">
            <mxPoint x="360" y="332.5" as="sourcePoint" />
            <mxPoint x="410" y="282.5" as="targetPoint" />
          </mxGeometry>
        </mxCell>
        <mxCell id="bE_vDaXtN3nRqw1rFhPW-129" value="" style="endArrow=classic;html=1;rounded=0;exitX=0.5;exitY=1;exitDx=0;exitDy=0;entryX=0.5;entryY=0;entryDx=0;entryDy=0;" edge="1" parent="WIyWlLk6GJQsqaUBKTNV-1" source="bE_vDaXtN3nRqw1rFhPW-114" target="bE_vDaXtN3nRqw1rFhPW-8">
          <mxGeometry width="50" height="50" relative="1" as="geometry">
            <mxPoint x="370" y="330" as="sourcePoint" />
            <mxPoint x="420" y="280" as="targetPoint" />
          </mxGeometry>
        </mxCell>
        <mxCell id="bE_vDaXtN3nRqw1rFhPW-130" value="" style="endArrow=classic;html=1;rounded=0;exitX=0.5;exitY=0;exitDx=0;exitDy=0;entryX=0.5;entryY=0;entryDx=0;entryDy=0;" edge="1" parent="WIyWlLk6GJQsqaUBKTNV-1" source="bE_vDaXtN3nRqw1rFhPW-119" target="bE_vDaXtN3nRqw1rFhPW-8">
          <mxGeometry width="50" height="50" relative="1" as="geometry">
            <mxPoint x="180" y="360" as="sourcePoint" />
            <mxPoint x="230" y="310" as="targetPoint" />
          </mxGeometry>
        </mxCell>
        <mxCell id="bE_vDaXtN3nRqw1rFhPW-131" value="" style="endArrow=classic;html=1;rounded=0;" edge="1" parent="WIyWlLk6GJQsqaUBKTNV-1">
          <mxGeometry width="50" height="50" relative="1" as="geometry">
            <mxPoint x="440" y="539.5" as="sourcePoint" />
            <mxPoint x="520" y="540" as="targetPoint" />
          </mxGeometry>
        </mxCell>
        <mxCell id="bE_vDaXtN3nRqw1rFhPW-132" value="Check if there are invalid arguments in the given string" style="text;html=1;align=center;verticalAlign=middle;whiteSpace=wrap;rounded=0;" vertex="1" parent="WIyWlLk6GJQsqaUBKTNV-1">
          <mxGeometry x="525" y="507.5" width="95" height="65" as="geometry" />
        </mxCell>
        <mxCell id="bE_vDaXtN3nRqw1rFhPW-133" value="" style="endArrow=classic;html=1;rounded=0;" edge="1" parent="WIyWlLk6GJQsqaUBKTNV-1">
          <mxGeometry width="50" height="50" relative="1" as="geometry">
            <mxPoint x="625" y="539.5" as="sourcePoint" />
            <mxPoint x="700" y="540" as="targetPoint" />
          </mxGeometry>
        </mxCell>
        <mxCell id="bE_vDaXtN3nRqw1rFhPW-135" value="" style="verticalLabelPosition=bottom;verticalAlign=top;html=1;strokeWidth=2;shape=mxgraph.arrows2.arrow;dy=0.6;dx=40;notch=1;direction=south;" vertex="1" parent="WIyWlLk6GJQsqaUBKTNV-1">
          <mxGeometry x="285" y="570" width="90" height="132.5" as="geometry" />
        </mxCell>
        <mxCell id="bE_vDaXtN3nRqw1rFhPW-136" value="" style="endArrow=classic;html=1;rounded=0;" edge="1" parent="WIyWlLk6GJQsqaUBKTNV-1">
          <mxGeometry width="50" height="50" relative="1" as="geometry">
            <mxPoint x="660" y="540" as="sourcePoint" />
            <mxPoint x="700" y="630" as="targetPoint" />
            <Array as="points">
              <mxPoint x="660" y="630" />
            </Array>
          </mxGeometry>
        </mxCell>
        <mxCell id="bE_vDaXtN3nRqw1rFhPW-137" value="Handle user input specific behaviors as specified in les consignes du proj zebi" style="text;html=1;align=center;verticalAlign=middle;whiteSpace=wrap;rounded=0;" vertex="1" parent="WIyWlLk6GJQsqaUBKTNV-1">
          <mxGeometry x="710" y="601.25" width="120" height="70" as="geometry" />
        </mxCell>
        <mxCell id="bE_vDaXtN3nRqw1rFhPW-138" value="" style="endArrow=none;html=1;rounded=0;" edge="1" parent="WIyWlLk6GJQsqaUBKTNV-1">
          <mxGeometry width="50" height="50" relative="1" as="geometry">
            <mxPoint x="670" y="590" as="sourcePoint" />
            <mxPoint x="850" y="590" as="targetPoint" />
          </mxGeometry>
        </mxCell>
        <mxCell id="bE_vDaXtN3nRqw1rFhPW-141" value="Create custom error message for error handling function or use the error codes found in man for function" style="text;html=1;align=center;verticalAlign=middle;whiteSpace=wrap;rounded=0;" vertex="1" parent="WIyWlLk6GJQsqaUBKTNV-1">
          <mxGeometry x="707" y="507.5" width="120" height="67.5" as="geometry" />
        </mxCell>
        <mxCell id="bE_vDaXtN3nRqw1rFhPW-142" value="&lt;div&gt;If&lt;/div&gt;&lt;div&gt;valid&lt;br&gt;&lt;/div&gt;" style="text;html=1;align=center;verticalAlign=middle;whiteSpace=wrap;rounded=0;" vertex="1" parent="WIyWlLk6GJQsqaUBKTNV-1">
          <mxGeometry x="300" y="601.25" width="60" height="55" as="geometry" />
        </mxCell>
        <mxCell id="bE_vDaXtN3nRqw1rFhPW-143" value="&lt;div&gt;&lt;font color=&quot;#cc0000&quot;&gt;extern char **environ will store the environnement variables of the given system&lt;/font&gt;&lt;/div&gt;&lt;div&gt;&lt;font color=&quot;#cc0000&quot;&gt;(PATH=...&lt;/font&gt;&lt;/div&gt;&lt;div&gt;&lt;font color=&quot;#cc0000&quot;&gt;NAME=...&lt;/font&gt;&lt;/div&gt;&lt;div&gt;&lt;font color=&quot;#cc0000&quot;&gt;...)&lt;br&gt;&lt;/font&gt;&lt;/div&gt;" style="text;html=1;align=center;verticalAlign=middle;whiteSpace=wrap;rounded=0;" vertex="1" parent="WIyWlLk6GJQsqaUBKTNV-1">
          <mxGeometry x="20" y="160" width="120" height="130" as="geometry" />
        </mxCell>
        <mxCell id="bE_vDaXtN3nRqw1rFhPW-146" value="&lt;font style=&quot;font-size: 25px;&quot;&gt;SQUELETON&lt;/font&gt;" style="text;html=1;align=center;verticalAlign=middle;whiteSpace=wrap;rounded=0;rotation=0;" vertex="1" parent="WIyWlLk6GJQsqaUBKTNV-1">
          <mxGeometry x="210" width="290" height="47.5" as="geometry" />
        </mxCell>
      </root>
    </mxGraphModel>
  </diagram>
</mxfile>
